<svg xmlns="http://www.w3.org/2000/svg" width="1280" height="720" fill="none" viewBox="0 0 1280 720">
  <rect width="1280" height="720" fill="#0B1220" rx="36"/>
  <rect width="1184" height="624" x="48" y="48" fill="#111827" stroke="#334155" rx="28"/>
  <text x="84" y="118" fill="#F8FAFC" font-family="Arial, sans-serif" font-size="44" font-weight="700">Codex 使用入口地图</text>
  <text x="84" y="158" fill="#CBD5E1" font-family="Arial, sans-serif" font-size="22">同一套编码代理能力，在不同入口里承担不同节奏的任务。</text>
  <g font-family="Arial, sans-serif">
    <rect width="270" height="178" x="78" y="220" fill="#0F766E" fill-opacity=".22" stroke="#2DD4BF" rx="20"/>
    <text x="106" y="272" fill="#CCFBF1" font-size="30" font-weight="700">CLI</text>
    <text x="106" y="315" fill="#E2E8F0" font-size="20">终端内快速迭代</text>
    <text x="106" y="350" fill="#94A3B8" font-size="18">读代码 · 改文件 · 跑测试</text>

    <rect width="270" height="178" x="363" y="220" fill="#1D4ED8" fill-opacity=".2" stroke="#60A5FA" rx="20"/>
    <text x="391" y="272" fill="#DBEAFE" font-size="30" font-weight="700">Cloud / Web</text>
    <text x="391" y="315" fill="#E2E8F0" font-size="20">长任务与并行任务</text>
    <text x="391" y="350" fill="#94A3B8" font-size="18">仓库任务 · PR · 后台运行</text>

    <rect width="270" height="178" x="648" y="220" fill="#7C3AED" fill-opacity=".18" stroke="#A78BFA" rx="20"/>
    <text x="676" y="272" fill="#EDE9FE" font-size="30" font-weight="700">IDE</text>
    <text x="676" y="315" fill="#E2E8F0" font-size="20">贴近编辑器上下文</text>
    <text x="676" y="350" fill="#94A3B8" font-size="17">解释代码 · 局部修改 · Review</text>

    <rect width="270" height="178" x="933" y="220" fill="#F59E0B" fill-opacity=".16" stroke="#FBBF24" rx="20"/>
    <text x="961" y="272" fill="#FEF3C7" font-size="30" font-weight="700">Desktop App</text>
    <text x="961" y="315" fill="#E2E8F0" font-size="20">本地多任务工作台</text>
    <text x="961" y="350" fill="#94A3B8" font-size="17">Agents · Skills · Automations</text>

    <rect width="420" height="118" x="180" y="462" fill="#020617" stroke="#475569" rx="18"/>
    <text x="212" y="510" fill="#F8FAFC" font-size="26" font-weight="700">ChatGPT 中的 Codex</text>
    <text x="212" y="548" fill="#94A3B8" font-size="18">面向仓库的任务分派、理解、总结与协作</text>

    <rect width="420" height="118" x="680" y="462" fill="#020617" stroke="#475569" rx="18"/>
    <text x="712" y="510" fill="#F8FAFC" font-size="26" font-weight="700">集成生态</text>
    <text x="712" y="548" fill="#94A3B8" font-size="18">GitHub · Slack · Linear · MCP · 企业流程</text>
  </g>
</svg>
